<?xml version="1.0" encoding="UTF-8"?>
<!DOCTYPE svg PUBLIC "-//W3C//DTD SVG 1.1//EN" "http://www.w3.org/Graphics/SVG/1.1/DTD/svg11.dtd">
<!-- Creator: CorelDRAW -->
<svg xmlns="http://www.w3.org/2000/svg" xml:space="preserve" width="91px" height="29px" version="1.1" style="shape-rendering:geometricPrecision; text-rendering:geometricPrecision; image-rendering:optimizeQuality; fill-rule:evenodd; clip-rule:evenodd"
viewBox="0 0 90.99 28.82"
 xmlns:xlink="http://www.w3.org/1999/xlink"
 xmlns:xodm="http://www.corel.com/coreldraw/odm/2003">
 <defs>
  <style type="text/css">
   <![CDATA[
    .fil1 {fill:#254B5E;fill-rule:nonzero}
    .fil0 {fill:#ED6F00;fill-rule:nonzero}
   ]]>
  </style>
 </defs>
 <g id="Capa_x0020_1">
  <metadata id="CorelCorpID_0Corel-Layer"/>
  <path class="fil0" d="M7.57 18.93l0 -1.26c-0.1,-0.54 -0.37,-1.02 -0.8,-1.45 -0.57,-0.58 -1.27,-0.87 -2.08,-0.87 -0.81,0 -1.51,0.29 -2.08,0.87 -0.57,0.57 -0.86,1.27 -0.86,2.07 0,0.82 0.29,1.51 0.86,2.08 0.57,0.57 1.27,0.86 2.08,0.86 0.81,0 1.51,-0.29 2.08,-0.86 0.43,-0.43 0.7,-0.91 0.8,-1.44zm0 -4.06l0 -5.29 1.71 0 0 13.19 -1.71 0 0 -1.05c-0.83,0.85 -1.78,1.27 -2.88,1.27 -1.3,0 -2.4,-0.46 -3.32,-1.37 -0.91,-0.92 -1.37,-2.03 -1.37,-3.33 0,-1.29 0.46,-2.4 1.37,-3.32 0.92,-0.92 2.02,-1.38 3.32,-1.38 1.1,0 2.05,0.43 2.88,1.28z"/>
  <path class="fil0" d="M16.91 15.57c-0.19,-0.15 -0.62,-0.22 -1.29,-0.22 -0.81,0 -1.5,0.29 -2.08,0.86 -0.57,0.58 -0.86,1.27 -0.86,2.08 0,0.67 0.07,1.1 0.22,1.3l4.01 -4.02zm-2.85 5.28c0.28,0.25 0.8,0.38 1.56,0.38 0.81,0 1.5,-0.29 2.08,-0.86 0.07,-0.08 0.22,-0.25 0.44,-0.51l1.71 0.61c-0.42,0.58 -0.72,0.96 -0.91,1.15 -0.92,0.91 -2.03,1.37 -3.32,1.37 -1.3,0 -2.4,-0.46 -3.32,-1.37 -0.92,-0.92 -1.38,-2.03 -1.38,-3.33 0,-1.29 0.46,-2.4 1.38,-3.32 0.92,-0.92 2.02,-1.38 3.32,-1.38 1.11,0 2.08,0.34 2.91,1.01 0.14,0.12 0.28,0.24 0.41,0.37 0.05,0.06 0.21,0.23 0.47,0.52l-0.86 0.87 -4.49 4.49z"/>
  <path class="fil0" d="M23.19 17.63l0 1.33c0.11,0.52 0.37,1 0.8,1.42 0.57,0.57 1.27,0.86 2.08,0.86 0.81,0 1.51,-0.29 2.08,-0.86 0.58,-0.58 0.86,-1.27 0.86,-2.09 0,-0.8 -0.28,-1.5 -0.86,-2.07 -0.57,-0.58 -1.27,-0.87 -2.08,-0.87 -0.81,0 -1.51,0.29 -2.08,0.87 -0.43,0.42 -0.69,0.89 -0.8,1.41zm0 4.09l0 2.64 -1.7 0 0 -10.07 1.7 0 0 0.76c0.83,-0.96 1.79,-1.45 2.88,-1.45 1.3,0 2.4,0.46 3.32,1.38 0.91,0.91 1.37,2.02 1.37,3.31 0,1.3 -0.46,2.41 -1.37,3.33 -0.92,0.91 -2.02,1.37 -3.32,1.37 -1.09,0 -2.05,-0.42 -2.88,-1.27z"/>
  <path class="fil0" d="M34.33 22.77l-1.7 0 0 -8.48 1.7 0 0 8.48zm-0.01 -11.62c0.24,0.23 0.36,0.51 0.36,0.84 0,0.34 -0.12,0.62 -0.36,0.85 -0.23,0.23 -0.52,0.35 -0.85,0.35 -0.32,0 -0.6,-0.12 -0.84,-0.35 -0.23,-0.23 -0.35,-0.51 -0.35,-0.85 0,-0.33 0.12,-0.61 0.35,-0.84 0.24,-0.24 0.52,-0.35 0.84,-0.35 0.33,0 0.62,0.11 0.85,0.35z"/>
  <path class="fil0" d="M53.74 15.5c0,-0.42 -0.13,-0.77 -0.38,-1.03 -0.25,-0.25 -0.58,-0.38 -0.97,-0.38 -0.69,0 -1.34,0.4 -1.97,1.2 -0.73,0.92 -1.31,1.88 -1.75,2.9 -0.43,1.01 -0.65,1.9 -0.65,2.67 0,0.93 0.38,1.39 1.15,1.39 0.43,0 0.91,-0.24 1.42,-0.72 0.51,-0.47 0.94,-1.07 1.28,-1.8l1.6 -3.43c0.18,-0.39 0.27,-0.65 0.27,-0.8zm2.59 -1.7c0,0.04 -0.06,0.18 -0.17,0.43l-2.71 6.14c-0.26,0.58 -0.39,1.03 -0.39,1.35 0,0.35 0.18,0.53 0.54,0.53 0.53,0 1.06,-0.37 1.6,-1.1 0.11,-0.16 0.19,-0.23 0.24,-0.23 0.06,0 0.09,0.02 0.09,0.08 0,0.15 -0.16,0.39 -0.46,0.72 -0.6,0.64 -1.32,0.96 -2.15,0.96 -0.42,0 -0.77,-0.1 -1.04,-0.31 -0.26,-0.2 -0.4,-0.47 -0.4,-0.8 0,-0.2 0.05,-0.44 0.15,-0.71 -0.86,1.25 -1.86,1.88 -3,1.88 -0.71,0 -1.29,-0.23 -1.74,-0.68 -0.45,-0.46 -0.68,-1.04 -0.68,-1.75 0,-0.78 0.26,-1.63 0.78,-2.56 0.52,-0.93 1.21,-1.78 2.07,-2.54 1.18,-1.04 2.26,-1.55 3.24,-1.55 1.03,0 1.6,0.49 1.73,1.47l0.51 -1.09c0.11,-0.21 0.21,-0.32 0.29,-0.32 0.02,0 0.11,0.01 0.24,0.04 0.14,0.03 0.24,0.04 0.29,0.04 0.3,0 0.53,-0.03 0.7,-0.1 0.05,-0.03 0.1,-0.04 0.14,-0.04 0.08,0 0.13,0.04 0.13,0.14z"/>
  <path class="fil0" d="M69.6 14.87c0,1.9 -0.57,3.7 -1.72,5.38 -1.14,1.69 -2.34,2.53 -3.62,2.53 -0.43,0 -0.82,-0.14 -1.14,-0.42 -0.33,-0.28 -0.55,-0.66 -0.64,-1.14 -0.04,-0.19 -0.06,-0.52 -0.06,-0.98 -0.81,1.7 -1.83,2.54 -3.06,2.54 -0.55,0 -1,-0.16 -1.35,-0.49 -0.36,-0.33 -0.54,-0.75 -0.54,-1.25 0,-0.68 0.2,-1.45 0.58,-2.33l1.23 -2.84c0.2,-0.48 0.31,-0.87 0.31,-1.17 0,-0.37 -0.16,-0.55 -0.47,-0.55 -0.28,0 -0.63,0.18 -1.05,0.54 -0.43,0.36 -0.75,0.76 -0.97,1.18 -0.06,0.15 -0.14,0.23 -0.22,0.23 -0.08,0 -0.12,-0.06 -0.12,-0.17 0,-0.24 0.26,-0.64 0.8,-1.19 0.71,-0.72 1.44,-1.08 2.19,-1.08 1,0 1.5,0.39 1.5,1.18 0,0.55 -0.22,1.31 -0.66,2.27l-1.21 2.66c-0.31,0.7 -0.47,1.28 -0.47,1.74 0,0.58 0.23,0.86 0.7,0.86 1.13,0 2.29,-1.43 3.48,-4.29l1.05 -2.52 0.39 -1.17c0.04,-0.16 0.14,-0.25 0.29,-0.26l0.24 -0.02 0.5 -0.07 0.57 -0.1c0.15,-0.02 0.21,-0.04 0.19,-0.04 0.1,0 0.16,0.04 0.16,0.12 0,0.06 -0.03,0.11 -0.08,0.17 -0.07,0.14 -0.15,0.31 -0.23,0.51l-1.93 4.82c-0.3,0.75 -0.45,1.37 -0.45,1.85 0,0.67 0.3,1 0.88,1 0.99,0 2.06,-0.96 3.22,-2.89 0.87,-1.44 1.3,-2.82 1.3,-4.16 0,-0.3 -0.09,-0.45 -0.27,-0.45 -0.02,0 -0.09,0.01 -0.2,0.04 -0.02,0.01 -0.08,0.02 -0.16,0.02 -0.39,0 -0.58,-0.17 -0.58,-0.52 0,-0.2 0.08,-0.38 0.24,-0.53 0.16,-0.15 0.36,-0.22 0.59,-0.22 0.52,0 0.79,0.4 0.79,1.21z"/>
  <path class="fil0" d="M77.52 15.5c0,-0.42 -0.13,-0.77 -0.38,-1.03 -0.26,-0.25 -0.58,-0.38 -0.98,-0.38 -0.68,0 -1.34,0.4 -1.97,1.2 -0.72,0.92 -1.3,1.88 -1.74,2.9 -0.44,1.01 -0.66,1.9 -0.66,2.67 0,0.93 0.38,1.39 1.15,1.39 0.44,0 0.91,-0.24 1.43,-0.72 0.51,-0.47 0.94,-1.07 1.28,-1.8l1.6 -3.43c0.18,-0.39 0.27,-0.65 0.27,-0.8zm2.58 -1.7c0,0.04 -0.06,0.18 -0.16,0.43l-2.71 6.14c-0.26,0.58 -0.39,1.03 -0.39,1.35 0,0.35 0.18,0.53 0.53,0.53 0.53,0 1.07,-0.37 1.6,-1.1 0.11,-0.16 0.19,-0.23 0.25,-0.23 0.05,0 0.08,0.02 0.08,0.08 0,0.15 -0.15,0.39 -0.45,0.72 -0.6,0.64 -1.32,0.96 -2.16,0.96 -0.42,0 -0.76,-0.1 -1.03,-0.31 -0.27,-0.2 -0.4,-0.47 -0.4,-0.8 0,-0.2 0.05,-0.44 0.14,-0.71 -0.86,1.25 -1.86,1.88 -2.99,1.88 -0.71,0 -1.29,-0.23 -1.75,-0.68 -0.45,-0.46 -0.67,-1.04 -0.67,-1.75 0,-0.78 0.26,-1.63 0.78,-2.56 0.52,-0.93 1.21,-1.78 2.07,-2.54 1.17,-1.04 2.25,-1.55 3.24,-1.55 1.02,0 1.6,0.49 1.72,1.47l0.52 -1.09c0.1,-0.21 0.2,-0.32 0.28,-0.32 0.03,0 0.11,0.01 0.25,0.04 0.13,0.03 0.23,0.04 0.29,0.04 0.3,0 0.53,-0.03 0.69,-0.1 0.06,-0.03 0.11,-0.04 0.15,-0.04 0.08,0 0.12,0.04 0.12,0.14z"/>
  <path class="fil0" d="M90.99 14.33c0,0.48 -0.23,0.72 -0.7,0.72 -0.21,0 -0.37,-0.13 -0.47,-0.39 -0.02,-0.05 -0.06,-0.08 -0.1,-0.08 -0.14,0 -0.43,0.37 -0.88,1.11l-2.11 3.45c-0.09,0.15 -1.05,1.63 -2.9,4.44 -0.95,1.46 -1.95,2.61 -2.97,3.45 -0.6,0.49 -1.2,0.74 -1.79,0.74 -0.61,0 -0.92,-0.23 -0.92,-0.68 0,-0.23 0.08,-0.42 0.25,-0.57 0.16,-0.15 0.37,-0.23 0.61,-0.23 0.18,0 0.29,0.03 0.34,0.08 0.05,0.06 0.08,0.22 0.09,0.5 0.02,0.2 0.11,0.3 0.29,0.3 0.24,0 0.62,-0.22 1.13,-0.65 0.51,-0.44 0.99,-0.96 1.44,-1.55 0.68,-0.89 1.02,-1.66 1.02,-2.32l0 -0.51 0 -0.49 0 -5.92c0,-0.95 -0.21,-1.42 -0.62,-1.42 -0.51,0 -0.98,0.53 -1.44,1.58 -0.17,0.38 -0.31,0.58 -0.42,0.58 -0.11,0 -0.17,-0.07 -0.17,-0.19 0,-0.27 0.21,-0.72 0.62,-1.33 0.61,-0.92 1.34,-1.38 2.17,-1.38 0.62,0 1.01,0.21 1.17,0.62 0.13,0.31 0.19,0.84 0.19,1.58l0 0.55 -0.06 3.65c0,0.51 0.01,1.02 0.04,1.52l0.33 -0.49c0.13,-0.25 0.35,-0.62 0.65,-1.11l0.66 -1 1.76 -2.92c0.67,-1.09 1.11,-1.75 1.3,-1.99 0.2,-0.23 0.46,-0.35 0.77,-0.35 0.48,0 0.72,0.24 0.72,0.7z"/>
  <path class="fil0" d="M38.72 18.33c0.22,-4.44 1.53,-8.54 3.76,-12.38 1.18,-2.04 2.64,-3.84 4.29,-5.51 0.11,-0.1 0.23,-0.2 0.34,-0.31 0.15,-0.13 0.34,-0.2 0.48,-0.03 0.11,0.14 -0.04,0.28 -0.15,0.39 -2.88,2.88 -4.51,6.44 -5.45,10.33 -0.84,3.5 -0.96,7.05 -0.48,10.62 0.08,0.63 0.09,1.28 0.05,1.92 -0.05,0.63 -0.35,1.15 -1.05,1.25 -0.7,0.1 -1.18,-0.26 -1.49,-0.86 -0.19,-0.37 -0.26,-0.77 -0.27,-1.19 -0.04,-1.41 -0.11,-2.81 -0.03,-4.23z"/>
  <path class="fil1" d="M45.16 23.79c-0.11,-0.14 -0.27,-0.22 -0.44,-0.24 -0.17,-0.02 -0.34,0.03 -0.48,0.14 -0.14,0.11 -0.22,0.27 -0.24,0.44 -0.17,1.64 -1.18,3.38 -3.49,3.38 -0.02,0 -0.04,0 -0.05,0 -2.08,-0.03 -3.59,-1.39 -3.76,-3.39 -0.03,-0.36 -0.35,-0.62 -0.71,-0.59 -0.36,0.03 -0.62,0.34 -0.59,0.7 0.22,2.71 2.25,4.55 5.04,4.59l0.07 0c2.62,0 4.51,-1.79 4.79,-4.55 0.02,-0.17 -0.03,-0.34 -0.14,-0.48z"/>
 </g>
</svg>
