<?xml version="1.0" encoding="UTF-8"?>
<!DOCTYPE svg PUBLIC "-//W3C//DTD SVG 1.1//EN" "http://www.w3.org/Graphics/SVG/1.1/DTD/svg11.dtd">
<!-- Creator: CorelDRAW -->
<svg xmlns="http://www.w3.org/2000/svg" xml:space="preserve" width="90px" height="58px" version="1.1" style="shape-rendering:geometricPrecision; text-rendering:geometricPrecision; image-rendering:optimizeQuality; fill-rule:evenodd; clip-rule:evenodd"
viewBox="0 0 14.01 9.02"
 xmlns:xlink="http://www.w3.org/1999/xlink"
 xmlns:xodm="http://www.corel.com/coreldraw/odm/2003">
 <defs>
  <style type="text/css">
   <![CDATA[
    .fil0 {fill:#FEFEFE}
   ]]>
  </style>
 </defs>
 <g id="Capa_x0020_1">
  <metadata id="CorelCorpID_0Corel-Layer"/>
  <g id="_3046134632144">
   <path class="fil0" d="M1.84 2.7l0 0.64 -0.1 -0.08c-0.05,-0.04 -0.16,-0.11 -0.24,-0.14 -0.13,-0.06 -0.18,-0.07 -0.39,-0.07 -0.24,0 -0.27,0 -0.45,0.09 -0.94,0.45 -0.86,1.77 0.12,2.11 0.12,0.04 0.2,0.05 0.38,0.04 0.25,0 0.4,-0.06 0.57,-0.2l0.11 -0.09 0 0.13 0 0.12 0.2 0 0.2 0 0 -1.59 0 -1.6 -0.2 0 -0.2 0 0 0.64 0 0zm6.06 -0.25c-0.07,0.07 -0.08,0.1 -0.08,0.19 0,0.13 0.05,0.2 0.15,0.26 0.26,0.14 0.53,-0.15 0.37,-0.41 -0.05,-0.09 -0.13,-0.13 -0.27,-0.13 -0.06,0 -0.1,0.02 -0.17,0.09l0 0zm-4.45 0.63c-0.42,0.14 -0.73,0.5 -0.79,0.92 -0.09,0.55 0.25,1.09 0.78,1.26 0.14,0.04 0.22,0.05 0.41,0.03 0.32,-0.01 0.53,-0.11 0.77,-0.36 0.08,-0.1 0.16,-0.19 0.16,-0.21 0,-0.02 -0.08,-0.06 -0.19,-0.1l-0.19 -0.06 -0.12 0.1c-0.18,0.18 -0.25,0.21 -0.52,0.21 -0.15,0 -0.26,-0.02 -0.3,-0.04 -0.06,-0.03 -0.05,-0.04 0.58,-0.67 0.35,-0.35 0.64,-0.65 0.64,-0.67 0,-0.06 -0.31,-0.31 -0.47,-0.37 -0.22,-0.09 -0.55,-0.11 -0.76,-0.04l0 0zm2.64 -0.01c-0.16,0.05 -0.26,0.11 -0.38,0.22l-0.11 0.1 0 -0.09 0 -0.09 -0.2 0 -0.2 0 0 1.22 0.02 1.22 0.18 0 0.2 0 0 -0.32 0 -0.33 0.12 0.1c0.18,0.13 0.32,0.19 0.54,0.2 0.79,0.04 1.37,-0.72 1.12,-1.5 -0.09,-0.29 -0.37,-0.57 -0.67,-0.69 -0.18,-0.07 -0.48,-0.09 -0.62,-0.04l0 0zm1.8 1.16l0 1.02 0.22 0 0.21 0 0 -1.02 0 -1.02 -0.21 0 -0.22 0 0 1.02zm-6.98 -0.74c-0.29,0.11 -0.49,0.38 -0.49,0.68 0,0.29 0.2,0.58 0.47,0.67 0.28,0.09 0.58,0.01 0.77,-0.2 0.15,-0.16 0.17,-0.23 0.17,-0.47 0,-0.2 -0.01,-0.24 -0.07,-0.34 -0.18,-0.3 -0.54,-0.45 -0.85,-0.34l0 0zm2.64 0c-0.32,0.12 -0.52,0.43 -0.48,0.77 0.01,0.08 0.02,0.16 0.03,0.19 0.02,0.02 0.15,-0.1 0.51,-0.45 0.48,-0.49 0.48,-0.49 0.41,-0.52 -0.09,-0.03 -0.35,-0.03 -0.47,0.01l0 0zm2.52 0.01c-0.15,0.04 -0.33,0.21 -0.41,0.37 -0.06,0.12 -0.06,0.16 -0.05,0.34 0.01,0.23 0.06,0.33 0.22,0.49 0.25,0.24 0.68,0.24 0.95,0 0.37,-0.32 0.3,-0.91 -0.12,-1.15 -0.17,-0.09 -0.41,-0.11 -0.59,-0.05l0 0z"/>
   <path class="fil0" d="M11.98 5.65c-0.05,0.02 -0.13,0.08 -0.17,0.11 -0.16,0.16 -0.31,0.43 -0.28,0.51 0.02,0.06 0.08,-0.01 0.17,-0.19 0.13,-0.28 0.32,-0.38 0.41,-0.24 0.04,0.06 0.05,0.16 0.05,1.03 0.01,0.8 0,0.97 -0.03,1.08 -0.05,0.19 -0.25,0.47 -0.48,0.69 -0.27,0.26 -0.43,0.32 -0.43,0.15 0,-0.13 -0.14,-0.16 -0.25,-0.06 -0.06,0.05 -0.06,0.21 -0.01,0.26 0.06,0.05 0.28,0.04 0.41,-0.02 0.15,-0.06 0.4,-0.3 0.6,-0.53 0.15,-0.19 0.6,-0.83 0.6,-0.87 0,-0.02 0.01,-0.03 0.02,-0.03 0.02,-0.01 0.27,-0.39 0.64,-1 0.45,-0.74 0.47,-0.76 0.53,-0.64 0.04,0.06 0.15,0.06 0.21,0 0.05,-0.05 0.05,-0.21 0,-0.25 -0.02,-0.02 -0.08,-0.04 -0.14,-0.04 -0.13,0 -0.17,0.05 -0.49,0.58 -0.14,0.23 -0.34,0.55 -0.44,0.71 -0.1,0.15 -0.22,0.36 -0.27,0.44l-0.1 0.16 -0.01 -0.85c-0.02,-0.9 -0.02,-0.93 -0.13,-1.01 -0.08,-0.05 -0.28,-0.05 -0.41,0.01l0 0zm-7.64 0.04c-0.2,0.08 -0.42,0.25 -0.61,0.45 -0.47,0.48 -0.66,1.03 -0.47,1.38 0.09,0.19 0.26,0.28 0.5,0.28 0.23,0 0.41,-0.08 0.59,-0.27 0.12,-0.13 0.13,-0.14 0.12,-0.07 -0.09,0.4 0.59,0.45 0.89,0.06 0.04,-0.06 0.09,-0.12 0.09,-0.13 0,-0.05 -0.05,-0.02 -0.14,0.09 -0.12,0.14 -0.23,0.21 -0.33,0.21 -0.22,0 -0.19,-0.14 0.27,-1.16 0.2,-0.47 0.35,-0.87 0.35,-0.88 0,-0.01 -0.07,-0.01 -0.17,-0.01l-0.21 0.01 -0.06 0.15 -0.08 0.16 -0.03 -0.09c-0.02,-0.05 -0.06,-0.12 -0.1,-0.16 -0.07,-0.06 -0.1,-0.07 -0.27,-0.08 -0.16,0 -0.22,0.01 -0.34,0.06l0 0zm1.83 0.01c-0.21,0.12 -0.43,0.34 -0.43,0.45 0,0.08 0.04,0.05 0.13,-0.08 0.14,-0.22 0.39,-0.38 0.5,-0.32 0.11,0.06 0.05,0.27 -0.28,0.99 -0.16,0.36 -0.22,0.69 -0.13,0.85 0.11,0.22 0.41,0.29 0.67,0.16 0.12,-0.06 0.36,-0.28 0.36,-0.34 0,-0.01 0.03,-0.06 0.06,-0.11l0.06 -0.09 0 0.11c0,0.42 0.35,0.61 0.74,0.42 0.36,-0.17 0.7,-0.61 0.89,-1.17 0.09,-0.3 0.12,-0.73 0.06,-0.87 -0.04,-0.06 -0.06,-0.08 -0.15,-0.08 -0.11,0 -0.19,0.07 -0.19,0.18 0,0.09 0.06,0.13 0.18,0.12l0.08 -0.01 0.01 0.16c0.02,0.41 -0.26,1.01 -0.64,1.4 -0.24,0.25 -0.49,0.32 -0.6,0.18 -0.11,-0.14 -0.08,-0.29 0.3,-1.23 0.16,-0.4 0.29,-0.73 0.28,-0.74 -0.01,-0.01 -0.4,0.05 -0.42,0.07 -0.02,0.01 -0.05,0.07 -0.06,0.13 -0.06,0.18 -0.38,0.94 -0.49,1.18 -0.23,0.42 -0.46,0.66 -0.66,0.66 -0.14,0 -0.18,-0.07 -0.17,-0.27 0.01,-0.15 0.05,-0.24 0.24,-0.67 0.24,-0.53 0.3,-0.71 0.3,-0.86 0,-0.21 -0.1,-0.3 -0.35,-0.29 -0.13,0 -0.18,0.01 -0.29,0.07l0 0zm3.93 -0.02c-0.38,0.16 -0.8,0.58 -1.01,1 -0.24,0.48 -0.19,0.87 0.13,1.05 0.1,0.06 0.15,0.07 0.3,0.07 0.22,0 0.4,-0.08 0.58,-0.27 0.13,-0.14 0.13,-0.14 0.12,-0.06 -0.01,0.05 -0.01,0.11 0.02,0.16 0.13,0.27 0.7,0.18 0.91,-0.15 0.08,-0.14 0.03,-0.13 -0.09,0.01 -0.13,0.14 -0.22,0.2 -0.33,0.2 -0.09,0 -0.13,-0.04 -0.13,-0.14 0,-0.1 0.04,-0.2 0.24,-0.68 0.1,-0.21 0.24,-0.53 0.32,-0.71 0.08,-0.18 0.16,-0.36 0.17,-0.4 0.07,-0.12 0.06,-0.12 -0.15,-0.12l-0.19 0 -0.08 0.16 -0.08 0.16 -0.03 -0.09c-0.01,-0.05 -0.06,-0.12 -0.1,-0.16 -0.07,-0.06 -0.1,-0.07 -0.27,-0.08 -0.16,-0.01 -0.22,0.01 -0.33,0.05l0 0zm-5.62 0.09c-0.19,0.09 -0.46,0.43 -0.64,0.81 -0.15,0.32 -0.19,0.45 -0.21,0.69 -0.01,0.24 0.03,0.36 0.14,0.4 0.27,0.1 0.57,-0.15 0.84,-0.71 0.4,-0.84 0.43,-0.92 0.35,-1.09 -0.07,-0.14 -0.31,-0.19 -0.48,-0.1l0 0zm5.75 0c-0.24,0.12 -0.6,0.65 -0.78,1.14 -0.07,0.2 -0.09,0.55 -0.03,0.65 0.06,0.13 0.23,0.17 0.4,0.09 0.05,-0.03 0.16,-0.12 0.24,-0.21 0.15,-0.15 0.22,-0.29 0.59,-1.07 0.11,-0.24 0.13,-0.38 0.06,-0.5 -0.07,-0.14 -0.31,-0.19 -0.48,-0.1l0 0z"/>
   <path class="fil0" d="M10.72 0.21c-0.94,0.98 -1.52,2.27 -1.65,3.63 -0.02,0.35 -0.01,1.16 0.03,1.3 0.02,0.04 0.06,0.11 0.1,0.16 0.12,0.13 0.34,0.13 0.43,-0.01 0.06,-0.08 0.06,-0.43 0.02,-0.91 -0.05,-0.47 -0.03,-1.15 0.04,-1.59 0.06,-0.32 0.19,-0.82 0.26,-1.02 0.26,-0.69 0.55,-1.18 0.97,-1.61 0.1,-0.11 0.11,-0.16 0.04,-0.16 -0.02,0 -0.13,0.09 -0.24,0.21l0 0z"/>
  </g>
 </g>
</svg>
