<?xml version="1.0" encoding="UTF-8"?>
<!DOCTYPE svg PUBLIC "-//W3C//DTD SVG 1.1//EN" "http://www.w3.org/Graphics/SVG/1.1/DTD/svg11.dtd">
<!-- Creator: CorelDRAW -->
<svg xmlns="http://www.w3.org/2000/svg" xml:space="preserve" width="91px" height="30px" version="1.1" style="shape-rendering:geometricPrecision; text-rendering:geometricPrecision; image-rendering:optimizeQuality; fill-rule:evenodd; clip-rule:evenodd"
viewBox="0 0 48.54 15.98"
 xmlns:xlink="http://www.w3.org/1999/xlink"
 xmlns:xodm="http://www.corel.com/coreldraw/odm/2003">
 <defs>
  <style type="text/css">
   <![CDATA[
    .fil0 {fill:#FEFEFE}
    .fil1 {fill:#F5D36D}
   ]]>
  </style>
 </defs>
 <g id="Capa_x0020_1">
  <metadata id="CorelCorpID_0Corel-Layer"/>
  <g>
   <path class="fil0" d="M24.69 0.51c-2.29,2.39 -3.7,5.51 -4,8.84 -0.07,0.84 -0.03,2.81 0.06,3.14 0.04,0.11 0.14,0.29 0.24,0.4 0.3,0.32 0.83,0.31 1.06,-0.03 0.13,-0.18 0.14,-1.04 0.03,-2.2 -0.12,-1.15 -0.06,-2.81 0.12,-3.88 0.14,-0.77 0.44,-1.98 0.62,-2.47 0.64,-1.69 1.35,-2.88 2.37,-3.93 0.24,-0.25 0.26,-0.38 0.08,-0.38 -0.05,0 -0.31,0.23 -0.58,0.51l0 0zm-20.63 6l0 1.41 -0.22 -0.17c-0.12,-0.1 -0.36,-0.24 -0.53,-0.32 -0.29,-0.13 -0.39,-0.15 -0.87,-0.15 -0.53,0 -0.58,0.01 -0.98,0.2 -2.07,0.99 -1.9,3.9 0.27,4.66 0.26,0.09 0.42,0.11 0.82,0.09 0.56,-0.02 0.88,-0.14 1.27,-0.45l0.24 -0.2 0 0.28 0 0.28 0.44 0 0.43 0 0 -3.52 0 -3.51 -0.43 0 -0.44 0 0 1.4 0 0zm13.36 -0.56c-0.15,0.16 -0.18,0.23 -0.18,0.43 0,0.28 0.1,0.45 0.33,0.57 0.58,0.3 1.16,-0.33 0.82,-0.9 -0.12,-0.2 -0.3,-0.28 -0.59,-0.28 -0.14,0 -0.23,0.04 -0.38,0.18l0 0zm-9.81 1.4c-0.94,0.31 -1.61,1.09 -1.75,2.03 -0.19,1.2 0.56,2.41 1.72,2.77 0.32,0.09 0.48,0.11 0.9,0.08 0.72,-0.03 1.18,-0.26 1.7,-0.81 0.19,-0.22 0.36,-0.42 0.36,-0.46 0,-0.03 -0.19,-0.13 -0.43,-0.21l-0.42 -0.15 -0.25 0.24c-0.4,0.39 -0.55,0.45 -1.16,0.45 -0.33,0 -0.56,-0.03 -0.65,-0.08 -0.13,-0.07 -0.11,-0.09 1.28,-1.48 0.77,-0.78 1.41,-1.44 1.41,-1.47 0,-0.14 -0.68,-0.68 -1.04,-0.82 -0.49,-0.2 -1.21,-0.24 -1.67,-0.09l0 0zm5.81 -0.03c-0.34,0.12 -0.57,0.25 -0.83,0.49l-0.24 0.22 0 -0.2 0 -0.2 -0.44 0 -0.44 0 0 2.7 0 2.69 0.44 0 0.44 0 0 -0.72 0 -0.71 0.26 0.2c0.4,0.3 0.7,0.42 1.18,0.45 1.76,0.1 3.03,-1.58 2.48,-3.3 -0.2,-0.64 -0.81,-1.27 -1.49,-1.53 -0.39,-0.14 -1.05,-0.19 -1.36,-0.09l0 0zm30.65 0.03c-0.12,0.06 -0.29,0.18 -0.38,0.26 -0.35,0.35 -0.68,0.95 -0.61,1.11 0.04,0.13 0.16,-0.01 0.36,-0.41 0.3,-0.61 0.71,-0.84 0.91,-0.53 0.09,0.14 0.1,0.35 0.12,2.26 0.01,1.78 0,2.15 -0.07,2.4 -0.12,0.41 -0.56,1.04 -1.06,1.52 -0.6,0.57 -0.95,0.69 -0.95,0.32 0,-0.28 -0.31,-0.35 -0.56,-0.12 -0.13,0.11 -0.13,0.46 -0.01,0.56 0.13,0.11 0.62,0.09 0.9,-0.04 0.32,-0.14 0.89,-0.65 1.32,-1.17 0.34,-0.41 1.32,-1.83 1.32,-1.92 0,-0.03 0.02,-0.06 0.04,-0.07 0.06,-0.02 0.61,-0.86 1.42,-2.2 1,-1.64 1.03,-1.67 1.17,-1.41 0.08,0.14 0.34,0.14 0.46,0.01 0.12,-0.13 0.12,-0.47 0,-0.57 -0.05,-0.04 -0.18,-0.07 -0.3,-0.07 -0.29,0 -0.38,0.1 -1.08,1.26 -0.32,0.51 -0.75,1.22 -0.97,1.57 -0.22,0.34 -0.49,0.79 -0.61,0.98l-0.22 0.36 -0.02 -1.89c-0.03,-1.99 -0.04,-2.05 -0.29,-2.23 -0.17,-0.11 -0.62,-0.1 -0.89,0.02l0 0zm-16.85 0.09c-0.44,0.18 -0.93,0.55 -1.36,1 -1.02,1.06 -1.44,2.27 -1.04,3.04 0.21,0.42 0.58,0.63 1.12,0.63 0.5,0 0.89,-0.18 1.29,-0.61 0.28,-0.29 0.29,-0.3 0.26,-0.14 -0.18,0.88 1.32,0.98 1.97,0.13 0.1,-0.13 0.19,-0.27 0.19,-0.29 0,-0.11 -0.1,-0.04 -0.3,0.2 -0.26,0.31 -0.5,0.46 -0.72,0.46 -0.49,0 -0.42,-0.3 0.58,-2.56 0.45,-1.03 0.82,-1.9 0.82,-1.92 0,-0.03 -0.19,-0.05 -0.42,-0.05l-0.42 0.01 -0.17 0.35 -0.18 0.35 -0.06 -0.19c-0.04,-0.11 -0.14,-0.27 -0.23,-0.36 -0.15,-0.14 -0.21,-0.16 -0.59,-0.17 -0.35,-0.01 -0.48,0.01 -0.74,0.12l0 0zm4.02 0.03c-0.46,0.26 -0.93,0.76 -0.93,1 0,0.16 0.08,0.11 0.27,-0.18 0.32,-0.5 0.86,-0.84 1.1,-0.71 0.25,0.13 0.12,0.59 -0.61,2.18 -0.36,0.79 -0.48,1.53 -0.29,1.88 0.24,0.48 0.91,0.64 1.48,0.36 0.26,-0.13 0.79,-0.63 0.79,-0.75 0,-0.02 0.07,-0.13 0.14,-0.24l0.14 -0.21 0 0.25c0,0.91 0.76,1.34 1.63,0.92 0.79,-0.37 1.53,-1.35 1.95,-2.59 0.21,-0.65 0.28,-1.61 0.13,-1.9 -0.08,-0.15 -0.12,-0.18 -0.31,-0.18 -0.26,0 -0.43,0.15 -0.43,0.39 0,0.19 0.14,0.29 0.4,0.26l0.17 -0.01 0.02 0.34c0.04,0.9 -0.57,2.24 -1.41,3.1 -0.52,0.54 -1.08,0.7 -1.32,0.39 -0.25,-0.31 -0.17,-0.63 0.66,-2.71 0.35,-0.89 0.64,-1.62 0.63,-1.63 -0.03,-0.03 -0.89,0.11 -0.94,0.16 -0.04,0.02 -0.1,0.15 -0.13,0.28 -0.12,0.39 -0.83,2.07 -1.09,2.59 -0.49,0.94 -1,1.46 -1.45,1.46 -0.31,0 -0.4,-0.14 -0.37,-0.59 0.03,-0.32 0.1,-0.53 0.53,-1.47 0.53,-1.18 0.67,-1.58 0.67,-1.9 0,-0.47 -0.22,-0.66 -0.78,-0.65 -0.28,0 -0.4,0.03 -0.65,0.16l0 0zm8.67 -0.04c-0.83,0.35 -1.76,1.27 -2.23,2.21 -0.52,1.04 -0.41,1.9 0.3,2.31 0.22,0.14 0.33,0.16 0.65,0.16 0.5,0 0.89,-0.18 1.29,-0.61 0.28,-0.3 0.29,-0.3 0.26,-0.13 -0.03,0.11 -0.01,0.24 0.05,0.36 0.28,0.6 1.55,0.39 2,-0.34 0.19,-0.3 0.07,-0.29 -0.2,0.02 -0.28,0.32 -0.49,0.45 -0.72,0.45 -0.21,0 -0.29,-0.09 -0.29,-0.3 0,-0.23 0.08,-0.45 0.54,-1.5 0.21,-0.47 0.52,-1.18 0.69,-1.57 0.18,-0.4 0.35,-0.79 0.39,-0.88 0.14,-0.27 0.12,-0.28 -0.34,-0.28l-0.42 0.01 -0.18 0.35 -0.17 0.35 -0.07 -0.19c-0.03,-0.11 -0.13,-0.27 -0.23,-0.36 -0.15,-0.14 -0.2,-0.16 -0.59,-0.17 -0.34,-0.02 -0.48,0.01 -0.73,0.11l0 0zm-12.39 0.19c-0.41,0.2 -1.01,0.96 -1.41,1.8 -0.34,0.7 -0.42,0.98 -0.46,1.51 -0.03,0.54 0.06,0.79 0.3,0.88 0.6,0.23 1.26,-0.32 1.86,-1.56 0.89,-1.85 0.95,-2.04 0.77,-2.4 -0.16,-0.31 -0.68,-0.42 -1.06,-0.23l0 0zm12.69 0c-0.54,0.26 -1.34,1.43 -1.72,2.52 -0.16,0.45 -0.21,1.21 -0.08,1.44 0.15,0.29 0.52,0.37 0.9,0.18 0.11,-0.06 0.35,-0.26 0.52,-0.45 0.32,-0.34 0.48,-0.64 1.29,-2.37 0.25,-0.53 0.29,-0.82 0.14,-1.09 -0.16,-0.31 -0.67,-0.42 -1.05,-0.23l0 0zm-22.81 2.27l0 2.25 0.47 0 0.47 0 0 -2.25 0 -2.26 -0.47 0 -0.47 0 0 2.26 0 0zm-15.39 -1.63c-0.65,0.24 -1.08,0.83 -1.08,1.49 -0.01,0.65 0.44,1.28 1.03,1.48 0.62,0.2 1.29,0.03 1.7,-0.44 0.32,-0.35 0.37,-0.5 0.37,-1.04 0,-0.44 -0.02,-0.52 -0.15,-0.75 -0.39,-0.66 -1.2,-0.98 -1.87,-0.74l0 0zm5.82 0c-0.7,0.25 -1.14,0.95 -1.06,1.69 0.02,0.18 0.05,0.36 0.07,0.41 0.04,0.05 0.33,-0.21 1.11,-0.99 1.07,-1.07 1.07,-1.07 0.92,-1.13 -0.21,-0.08 -0.79,-0.07 -1.04,0.02l0 0zm5.56 0.01c-0.34,0.1 -0.73,0.46 -0.91,0.82 -0.13,0.27 -0.14,0.35 -0.12,0.76 0.03,0.49 0.13,0.72 0.49,1.06 0.56,0.53 1.5,0.54 2.09,0.02 0.81,-0.71 0.67,-2.01 -0.27,-2.54 -0.36,-0.2 -0.89,-0.25 -1.28,-0.12z"/>
  </g>
  <path class="fil1" d="M18.43 13.04c-0.16,0.15 -0.16,0.15 -0.1,0.56 0.2,1.25 1.14,2.16 2.44,2.35 1.49,0.22 2.78,-0.6 3.14,-2.01 0.17,-0.66 0.08,-0.98 -0.27,-0.98 -0.22,0 -0.34,0.17 -0.41,0.54 -0.14,0.71 -0.57,1.31 -1.12,1.56 -0.39,0.17 -1.08,0.21 -1.53,0.08 -0.42,-0.13 -0.71,-0.3 -0.99,-0.62 -0.29,-0.32 -0.4,-0.54 -0.5,-1.01 -0.08,-0.4 -0.15,-0.51 -0.36,-0.57 -0.09,-0.03 -0.18,0 -0.3,0.1z"/>
 </g>
</svg>
