<?xml version="1.0" standalone="no"?>
<!DOCTYPE svg PUBLIC "-//W3C//DTD SVG 20010904//EN"
 "http://www.w3.org/TR/2001/REC-SVG-20010904/DTD/svg10.dtd">
<svg version="1.0" xmlns="http://www.w3.org/2000/svg"
 width="512.000000pt" height="512.000000pt" viewBox="0 0 512.000000 512.000000"
 preserveAspectRatio="xMidYMid meet">

<g transform="translate(0.000000,512.000000) scale(0.100000,-0.100000)"
fill="#000000" stroke="none">
<path d="M230 4885 l-23 -25 148 -1122 c120 -905 149 -1153 153 -1279 9 -333
-42 -609 -183 -973 -51 -133 -82 -254 -101 -396 -29 -217 -12 -346 63 -500 38
-78 61 -109 128 -176 67 -68 98 -90 176 -127 135 -65 205 -77 463 -77 305 0
412 16 696 103 63 19 153 41 199 47 128 19 309 7 465 -29 276 -66 480 -96 762
-113 220 -14 337 -6 623 38 l170 26 133 -27 c159 -33 361 -44 447 -25 227 50
341 217 358 525 5 107 5 111 -18 131 -20 18 -84 32 -394 84 l-370 62 -145 83
c-341 195 -693 378 -1039 539 -205 96 -295 152 -393 245 -128 120 -219 264
-277 438 -57 168 -57 168 -32 1402 l22 1123 -22 24 c-28 30 -63 31 -93 1 -27
-27 -26 10 -53 -1403 -16 -856 -16 -906 1 -1008 29 -178 90 -333 193 -490 60
-91 206 -236 306 -305 43 -29 207 -114 365 -190 328 -156 628 -313 917 -479
l200 -114 343 -58 c188 -31 345 -60 349 -63 10 -11 -24 -197 -45 -247 -27 -64
-66 -107 -126 -138 -50 -26 -55 -27 -211 -26 -141 1 -175 5 -284 31 l-123 30
-137 -23 c-262 -44 -413 -57 -588 -50 -259 10 -513 45 -774 105 -193 45 -276
54 -423 48 -149 -6 -219 -19 -396 -75 -213 -67 -287 -77 -595 -77 -256 0 -273
1 -337 23 -164 57 -288 180 -350 348 -18 50 -22 80 -22 194 1 84 7 171 18 230
16 88 34 145 147 469 91 260 124 461 124 771 l0 235 -149 1120 c-132 997 -151
1122 -169 1143 -27 29 -68 28 -97 -3z"/>
<path d="M1082 2238 c-12 -6 -40 -40 -62 -75 -142 -224 -125 -441 48 -604 82
-78 124 -101 162 -87 31 10 54 51 45 79 -3 10 -34 41 -68 70 -120 100 -160
191 -137 307 13 61 48 138 86 189 32 43 31 86 -2 112 -30 23 -39 24 -72 9z"/>
</g>
</svg>
