<?xml version="1.0" standalone="no"?>
<!DOCTYPE svg PUBLIC "-//W3C//DTD SVG 20010904//EN"
 "http://www.w3.org/TR/2001/REC-SVG-20010904/DTD/svg10.dtd">
<svg version="1.0" xmlns="http://www.w3.org/2000/svg"
 width="512.000000pt" height="512.000000pt" viewBox="0 0 512.000000 512.000000"
 preserveAspectRatio="xMidYMid meet">

<g transform="translate(0.000000,512.000000) scale(0.100000,-0.100000)"
fill="#000000" stroke="none">
<path d="M232 4887 c-28 -30 -28 -68 1 -95 l23 -22 1360 0 c1509 0 1422 3
1558 -68 125 -65 229 -192 271 -332 15 -50 17 -179 15 -1530 -1 -1449 -1
-1476 19 -1553 30 -114 74 -191 161 -278 73 -73 83 -80 330 -204 140 -70 307
-157 370 -193 l114 -66 156 -26 155 -26 -3 -29 c-10 -84 -62 -120 -159 -110
-34 4 -88 13 -120 20 -51 12 -69 12 -148 -3 -109 -19 -346 -21 -460 -3 -44 7
-120 22 -170 34 -130 31 -281 29 -390 -6 -115 -37 -183 -47 -314 -47 -101 0
-123 3 -167 24 -153 71 -173 225 -65 509 75 196 85 254 85 487 0 150 -6 258
-22 400 -39 335 -79 488 -191 728 -92 200 -124 311 -142 500 -19 205 16 461
91 662 43 115 48 152 21 179 -29 29 -46 27 -143 -15 -424 -183 -1171 -374
-1992 -509 -121 -20 -228 -41 -238 -46 -38 -21 -34 -88 7 -115 22 -14 45 -12
302 31 729 122 1401 287 1824 448 l65 25 -22 -84 c-99 -370 -77 -745 62 -1048
115 -252 168 -411 193 -581 22 -152 51 -484 51 -592 0 -143 -27 -282 -80 -416
-54 -134 -69 -196 -77 -307 -4 -73 -2 -108 11 -152 34 -118 128 -212 250 -250
61 -18 85 -20 225 -15 136 4 169 9 261 36 161 47 201 49 381 13 270 -55 398
-62 600 -36 107 14 134 14 199 3 41 -8 109 -14 150 -13 163 2 251 93 267 277
6 70 -5 110 -34 121 -8 3 -94 19 -192 36 l-177 30 -125 70 c-68 39 -227 122
-354 185 -201 99 -237 121 -287 171 -61 61 -110 149 -128 229 -8 36 -11 465
-10 1520 2 1640 7 1514 -70 1670 -84 171 -227 294 -415 357 l-70 23 -1396 3
-1395 2 -22 -23z"/>
<path d="M2955 4445 c-14 -13 -25 -30 -25 -37 0 -25 49 -243 64 -286 32 -90
114 -180 205 -227 62 -31 82 -31 109 -2 40 42 22 91 -46 127 -41 21 -103 82
-123 122 -11 21 -31 93 -45 161 -21 98 -31 126 -50 145 -32 29 -59 28 -89 -3z"/>
<path d="M3021 1207 c-43 -21 -76 -101 -76 -182 0 -58 5 -78 27 -117 50 -84
114 -112 158 -68 28 28 25 64 -10 103 -41 48 -47 84 -21 142 26 58 26 77 4
103 -24 27 -53 34 -82 19z"/>
</g>
</svg>
